<svg
    xmlns="http://www.w3.org/2000/svg"
    viewBox="0 0 256 256"
    id="vector">
    <path
        id="path0"
        d="M 142.719 67.974 L 176.081 67.974 L 213.368 7.974 L 201.593 107.324 L 169.212 107.324 L 139.775 153.556 Q 141.247 110.763 142.719 67.974 Z"
        fill="#5690ef"
        stroke="#5690ef"
        stroke-width="8"
        stroke-linecap="round"
        stroke-linejoin="round"
        fill-rule="evenodd"/>
    <path
        id="path1"
        d="M 112.3 89.614 C 111.12 133.671 110.629 155.407 110.514 155.523 C 110.399 155.639 102.107 137.371 94.638 121.091 L 60.295 120.108 L 42.632 41.415 L 43.613 41.415 L 82.863 89.615 L 112.3 89.615 Z"
        fill="#5690ef"
        stroke="#5690ef"
        stroke-width="8"
        stroke-linecap="round"
        stroke-linejoin="round"
        fill-rule="evenodd"/>
    <path
        id="path2"
        d="M 90.85 208.85 C 90.85 218.699 94.767 228.155 101.731 235.119 C 108.695 242.083 118.151 246 128 246 C 137.849 246 147.305 242.083 154.269 235.119 C 161.233 228.155 165.15 218.699 165.15 208.85 C 165.15 199.001 161.233 189.545 154.269 182.581 C 147.305 175.617 137.849 171.7 128 171.7 C 118.151 171.7 108.695 175.617 101.731 182.581 C 94.767 189.545 90.85 199.001 90.85 208.85 Z"
        fill="#5690ef"
        stroke="#5690ef"
        stroke-width="8"
        stroke-linecap="round"
        stroke-linejoin="round"
        fill-rule="evenodd"/>
</svg>
